<svg version="1.1" xmlns="http://www.w3.org/2000/svg" xmlns:xlink="http://www.w3.org/1999/xlink" role="img" width="388" height="90" viewbox="0 0 388 90"><title>ZTransforms</title><desc>Generated by logo.svg, https://github.com/bubkoo/logo.svg</desc><path fill="#2b68a7" d="M-0.09 70.35L0.42 67.79L32.62 27.86L17.70 27.86Q14.82 27.86 13.42 29.42Q12.01 30.99 11.30 33.10L10.41 35.86L7.08 35.86L9.77 24.66L41.38 24.66L40.87 27.28L8.62 67.15L25.70 67.15Q28.65 67.15 30.06 65.58Q31.46 64.02 32.17 61.90L33.06 59.15L36.39 59.15L33.70 70.35L-0.09 70.35ZM45.61 70.35L46.18 67.66L47.66 67.66Q49.77 67.66 51.46 66.96Q53.16 66.26 53.80 63.38L61.35 27.86L55.21 27.86Q52.39 27.86 50.95 29.42Q49.51 30.99 48.81 33.10L47.91 35.86L44.58 35.86L47.27 24.66L83.30 24.66L81.26 35.86L77.93 35.86Q77.99 35.54 78.06 34.64Q78.12 33.74 78.18 32.94Q78.25 32.14 78.25 31.95Q78.25 30.29 77.35 29.07Q76.46 27.86 74.02 27.86L67.82 27.86L60.26 63.31Q60.01 64.34 60.01 65.10Q60.01 66.77 61.32 67.22Q62.63 67.66 64.62 67.66L66.09 67.66L65.51 70.35L45.61 70.35ZM81.77 70.35L87.14 44.62Q87.34 43.73 87.43 42.90Q87.53 42.06 87.53 41.74Q87.53 39.82 85.86 39.28Q84.20 38.74 82.41 38.74L81.90 38.74L82.47 36.05L93.80 36.05L92.46 45.26L93.10 45.26Q94.31 42.64 95.72 40.40Q97.13 38.16 99.11 36.78Q101.10 35.41 103.98 35.41Q106.66 35.41 107.94 36.66Q109.22 37.90 109.22 39.82Q109.22 42.06 107.98 43.38Q106.73 44.69 103.91 44.69Q103.91 42.38 103.40 41.01Q102.89 39.63 101.35 39.63Q99.69 39.63 97.99 41.36Q96.30 43.09 94.79 45.94Q93.29 48.78 92.07 52.14Q90.86 55.50 90.15 58.70L87.72 70.35L81.77 70.35ZM118.63 70.99Q115.82 70.99 113.96 69.46Q112.10 67.92 111.24 65.26Q110.38 62.61 110.38 59.28Q110.38 56.27 111.18 52.98Q111.98 49.68 113.58 46.58Q115.18 43.47 117.48 40.94Q119.78 38.42 122.79 36.91Q125.80 35.41 129.45 35.41Q131.75 35.41 133.70 36.05Q135.66 36.69 136.94 37.71L139.75 36.11L141.80 36.11L137.45 56.59Q137.32 57.30 137.06 58.64Q136.81 59.98 136.65 61.39Q136.49 62.80 136.49 63.70Q136.49 66.96 138.60 66.96Q139.62 66.96 140.81 66.48Q141.99 66 143.21 65.30L144.36 67.15Q143.46 67.98 141.93 68.88Q140.39 69.78 138.66 70.38Q136.94 70.99 135.34 70.99Q133.03 70.99 131.69 69.58Q130.34 68.18 130.34 65.68Q130.34 64.40 130.50 63.34Q130.66 62.29 130.98 60.69L130.60 60.69Q128.36 65.62 125.38 68.30Q122.41 70.99 118.63 70.99M120.94 66.96Q122.60 66.96 124.36 65.68Q126.12 64.40 127.69 62.22Q129.26 60.05 130.47 57.36Q131.69 54.67 132.26 51.92L134.63 40.59Q133.93 39.44 132.58 38.86Q131.24 38.29 129.77 38.29Q127.21 38.29 125.16 39.73Q123.11 41.17 121.58 43.54Q120.04 45.90 118.98 48.72Q117.93 51.54 117.42 54.38Q116.90 57.23 116.90 59.54Q116.90 63.50 118.06 65.23Q119.21 66.96 120.94 66.96ZM174.12 70.99Q171.30 70.99 169.80 69.20Q168.30 67.41 168.30 64.59Q168.30 61.65 169.51 55.95L170.60 50.96Q170.79 50.13 171.11 48.75Q171.43 47.38 171.69 45.94Q171.94 44.50 171.94 43.34Q171.94 42.06 171.40 40.82Q170.86 39.57 169 39.57Q166.95 39.57 165 41.04Q163.05 42.51 161.35 44.82Q159.66 47.12 158.47 49.58Q157.29 52.05 156.90 53.97L153.45 70.35L147.50 70.35L152.87 44.62Q153.06 43.73 153.16 42.90Q153.26 42.06 153.26 41.74Q153.26 39.82 151.91 39.28Q150.57 38.74 148.78 38.74L148.26 38.74L148.84 36.05L160.68 36.05L158.95 44.11L159.59 44.11Q162.22 39.89 164.94 37.68Q167.66 35.47 171.24 35.47Q175.02 35.47 176.55 37.62Q178.09 39.76 178.09 42.58Q178.09 44.18 177.67 46.06Q177.26 47.95 176.94 49.62L175.27 57.17Q174.89 58.96 174.66 60.69Q174.44 62.42 174.44 63.89Q174.44 66.96 176.68 66.96Q178.54 66.96 180.78 65.49L181.93 67.34Q180.39 68.62 178.50 69.81Q176.62 70.99 174.12 70.99ZM195.18 70.99Q190.38 70.99 187.50 69.07Q184.62 67.15 184.62 63.76Q184.62 62.03 185.29 61.14Q185.96 60.24 186.92 59.89Q187.88 59.54 188.65 59.54Q188.65 61.78 189.35 63.70Q190.06 65.62 191.66 66.77Q193.26 67.92 195.94 67.92Q199.14 67.92 201.00 66.45Q202.86 64.98 202.86 61.97Q202.86 59.73 201.38 58.13Q199.91 56.53 196.39 54.93Q192.87 53.26 190.76 51.06Q188.65 48.85 188.65 45.01Q188.65 40.91 191.98 38.19Q195.30 35.47 201.00 35.47Q204.52 35.47 206.70 36.37Q208.87 37.26 209.93 38.67Q210.98 40.08 210.98 41.55Q210.98 43.60 209.67 44.56Q208.36 45.52 206.18 45.52Q206.18 43.86 205.64 42.19Q205.10 40.53 203.85 39.47Q202.60 38.42 200.42 38.42Q197.54 38.42 195.88 39.98Q194.22 41.55 194.22 43.92Q194.22 46.10 195.78 47.54Q197.35 48.98 200.74 50.51Q204.26 52.11 206.34 54.42Q208.42 56.72 208.42 60.43Q208.42 65.10 204.87 68.05Q201.32 70.99 195.18 70.99ZM207.46 85.71Q206.50 85.71 205.45 85.55Q204.39 85.39 203.75 85.20L204.33 82.26Q204.84 82.38 205.70 82.54Q206.57 82.70 207.27 82.70Q210.41 82.70 212.17 80.02Q213.93 77.33 215.34 70.93L222.06 39.70L216.23 39.70L216.62 37.39L222.76 36.05L223.46 32.53Q224.49 27.09 227.43 24.08Q230.38 21.07 235.62 21.07Q239.72 21.07 241.80 22.38Q243.88 23.70 243.88 25.81Q243.88 27.92 242.50 28.94Q241.13 29.97 238.57 29.97Q238.57 27.54 237.93 25.78Q237.29 24.02 235.30 24.02Q232.94 24.02 231.66 25.97Q230.38 27.92 229.61 31.95L228.78 36.05L235.88 36.05L235.18 39.70L228.01 39.70L221.35 70.86Q220.14 76.56 218.22 79.79Q216.30 83.02 213.61 84.37Q210.92 85.71 207.46 85.71ZM248.10 70.99Q242.66 70.99 239.24 67.70Q235.82 64.40 235.82 57.74Q235.82 54.22 236.97 50.32Q238.12 46.42 240.49 43.02Q242.86 39.63 246.44 37.52Q250.02 35.41 254.89 35.41Q258.28 35.41 261.03 36.75Q263.78 38.10 265.42 41.04Q267.05 43.98 267.05 48.66Q267.05 51.41 266.34 54.45Q265.64 57.49 264.17 60.43Q262.70 63.38 260.46 65.74Q258.22 68.11 255.11 69.55Q252.01 70.99 248.10 70.99M248.81 67.73Q251.94 67.73 254.15 65.71Q256.36 63.70 257.74 60.53Q259.11 57.36 259.75 53.90Q260.39 50.45 260.39 47.57Q260.39 42.77 258.73 40.72Q257.06 38.67 254.12 38.67Q251.62 38.67 249.70 40.02Q247.78 41.36 246.41 43.57Q245.03 45.78 244.17 48.46Q243.30 51.15 242.89 53.87Q242.47 56.59 242.47 58.90Q242.47 63.76 244.20 65.74Q245.93 67.73 248.81 67.73ZM272.62 70.35L277.99 44.62Q278.18 43.73 278.28 42.90Q278.38 42.06 278.38 41.74Q278.38 39.82 276.71 39.28Q275.05 38.74 273.26 38.74L272.74 38.74L273.32 36.05L284.65 36.05L283.30 45.26L283.94 45.26Q285.16 42.64 286.57 40.40Q287.98 38.16 289.96 36.78Q291.94 35.41 294.82 35.41Q297.51 35.41 298.79 36.66Q300.07 37.90 300.07 39.82Q300.07 42.06 298.82 43.38Q297.58 44.69 294.76 44.69Q294.76 42.38 294.25 41.01Q293.74 39.63 292.20 39.63Q290.54 39.63 288.84 41.36Q287.14 43.09 285.64 45.94Q284.14 48.78 282.92 52.14Q281.70 55.50 281 58.70L278.57 70.35L272.62 70.35ZM348.20 70.99Q345.38 70.99 343.88 69.20Q342.38 67.41 342.38 64.59Q342.38 61.65 343.59 55.95L344.68 50.96Q344.87 50.13 345.19 48.75Q345.51 47.38 345.77 45.94Q346.02 44.50 346.02 43.34Q346.02 42.06 345.48 40.82Q344.94 39.57 343.08 39.57Q341.22 39.57 339.40 40.82Q337.58 42.06 335.98 44.05Q334.38 46.03 333.19 48.30Q332.01 50.58 331.37 52.56L330.34 57.17Q330.15 58.06 329.83 59.92Q329.51 61.78 329.22 63.92Q328.94 66.06 328.71 67.86Q328.49 69.65 328.49 70.35L322.41 70.35Q322.41 69.58 322.63 67.82Q322.86 66.06 323.18 63.86Q323.50 61.65 323.88 59.54Q324.26 57.42 324.58 55.95L325.67 50.96Q325.86 50.13 326.18 48.75Q326.50 47.38 326.76 45.94Q327.02 44.50 327.02 43.34Q327.02 42.06 326.47 40.82Q325.93 39.57 324.07 39.57Q322.02 39.57 320.07 41.04Q318.12 42.51 316.42 44.82Q314.73 47.12 313.54 49.58Q312.36 52.05 311.98 53.97L308.52 70.35L302.57 70.35L307.94 44.62Q308.14 43.73 308.23 42.90Q308.33 42.06 308.33 41.74Q308.33 39.82 306.98 39.28Q305.64 38.74 303.85 38.74L303.34 38.74L303.91 36.05L315.75 36.05L314.02 44.11L314.66 44.11Q317.29 39.89 320.01 37.68Q322.73 35.47 326.31 35.47Q330.09 35.47 331.62 37.62Q333.16 39.76 333.16 42.58Q333.16 42.96 333.13 43.34Q333.10 43.73 333.03 44.11L333.67 44.11Q336.23 39.89 338.98 37.68Q341.74 35.47 345.32 35.47Q349.10 35.47 350.63 37.62Q352.17 39.76 352.17 42.58Q352.17 44.18 351.75 46.06Q351.34 47.95 351.02 49.62L349.35 57.17Q348.97 58.96 348.74 60.69Q348.52 62.42 348.52 63.89Q348.52 66.96 350.76 66.96Q352.62 66.96 354.86 65.49L356.01 67.34Q354.47 68.62 352.58 69.81Q350.70 70.99 348.20 70.99ZM369.26 70.99Q364.46 70.99 361.58 69.07Q358.70 67.15 358.70 63.76Q358.70 62.03 359.37 61.14Q360.04 60.24 361 59.89Q361.96 59.54 362.73 59.54Q362.73 61.78 363.43 63.70Q364.14 65.62 365.74 66.77Q367.34 67.92 370.02 67.92Q373.22 67.92 375.08 66.45Q376.94 64.98 376.94 61.97Q376.94 59.73 375.46 58.13Q373.99 56.53 370.47 54.93Q366.95 53.26 364.84 51.06Q362.73 48.85 362.73 45.01Q362.73 40.91 366.06 38.19Q369.38 35.47 375.08 35.47Q378.60 35.47 380.78 36.37Q382.95 37.26 384.01 38.67Q385.06 40.08 385.06 41.55Q385.06 43.60 383.75 44.56Q382.44 45.52 380.26 45.52Q380.26 43.86 379.72 42.19Q379.18 40.53 377.93 39.47Q376.68 38.42 374.50 38.42Q371.62 38.42 369.96 39.98Q368.30 41.55 368.30 43.92Q368.30 46.10 369.86 47.54Q371.43 48.98 374.82 50.51Q378.34 52.11 380.42 54.42Q382.50 56.72 382.50 60.43Q382.50 65.10 378.95 68.05Q375.40 70.99 369.26 70.99Z"></path></svg>